<mxfile host="app.diagrams.net" modified="2023-12-15T12:25:04.382Z" agent="Mozilla/5.0 (Windows NT 10.0; Win64; x64) AppleWebKit/537.36 (KHTML, like Gecko) Chrome/120.0.0.0 Safari/537.36" etag="AdqRNdA4r6-KplysS5ma" version="22.1.9" type="device">
  <diagram id="R2lEEEUBdFMjLlhIrx00" name="Page-1">
    <mxGraphModel dx="733" dy="190" grid="0" gridSize="10" guides="1" tooltips="1" connect="1" arrows="1" fold="1" page="0" pageScale="1" pageWidth="850" pageHeight="1100" math="0" shadow="0" extFonts="Permanent Marker^https://fonts.googleapis.com/css?family=Permanent+Marker">
      <root>
        <mxCell id="0" />
        <mxCell id="1" parent="0" />
        <mxCell id="v-DQYGpWEDf2MSEYCDZo-1" value="Channel" style="whiteSpace=wrap;html=1;align=center;" parent="1" vertex="1">
          <mxGeometry x="370" y="410" width="100" height="40" as="geometry" />
        </mxCell>
        <mxCell id="v-DQYGpWEDf2MSEYCDZo-2" value="Channel Users" style="whiteSpace=wrap;html=1;align=center;" parent="1" vertex="1">
          <mxGeometry x="698" y="410" width="100" height="40" as="geometry" />
        </mxCell>
        <mxCell id="v-DQYGpWEDf2MSEYCDZo-3" value="Sender" style="whiteSpace=wrap;html=1;align=center;" parent="1" vertex="1">
          <mxGeometry x="576" y="600" width="100" height="40" as="geometry" />
        </mxCell>
        <mxCell id="v-DQYGpWEDf2MSEYCDZo-4" value="Receiver" style="whiteSpace=wrap;html=1;align=center;" parent="1" vertex="1">
          <mxGeometry x="791" y="603" width="100" height="40" as="geometry" />
        </mxCell>
        <mxCell id="v-DQYGpWEDf2MSEYCDZo-5" value="has" style="shape=rhombus;perimeter=rhombusPerimeter;whiteSpace=wrap;html=1;align=center;" parent="1" vertex="1">
          <mxGeometry x="524" y="400" width="120" height="60" as="geometry" />
        </mxCell>
        <mxCell id="v-DQYGpWEDf2MSEYCDZo-7" value="" style="endArrow=none;html=1;rounded=0;" parent="1" source="v-DQYGpWEDf2MSEYCDZo-1" target="v-DQYGpWEDf2MSEYCDZo-5" edge="1">
          <mxGeometry relative="1" as="geometry">
            <mxPoint x="533" y="439" as="sourcePoint" />
            <mxPoint x="562" y="439" as="targetPoint" />
          </mxGeometry>
        </mxCell>
        <mxCell id="v-DQYGpWEDf2MSEYCDZo-11" value="" style="endArrow=none;html=1;rounded=0;" parent="1" source="v-DQYGpWEDf2MSEYCDZo-5" target="v-DQYGpWEDf2MSEYCDZo-2" edge="1">
          <mxGeometry relative="1" as="geometry">
            <mxPoint x="644" y="459" as="sourcePoint" />
            <mxPoint x="804" y="459" as="targetPoint" />
          </mxGeometry>
        </mxCell>
        <mxCell id="v-DQYGpWEDf2MSEYCDZo-13" value="Name" style="ellipse;whiteSpace=wrap;html=1;align=center;" parent="1" vertex="1">
          <mxGeometry x="444" y="590" width="100" height="40" as="geometry" />
        </mxCell>
        <mxCell id="v-DQYGpWEDf2MSEYCDZo-14" value="ID" style="ellipse;whiteSpace=wrap;html=1;align=center;fontStyle=4;" parent="1" vertex="1">
          <mxGeometry x="476" y="542" width="100" height="40" as="geometry" />
        </mxCell>
        <mxCell id="v-DQYGpWEDf2MSEYCDZo-15" value="Phone number" style="ellipse;whiteSpace=wrap;html=1;align=center;" parent="1" vertex="1">
          <mxGeometry x="544" y="721" width="100" height="40" as="geometry" />
        </mxCell>
        <mxCell id="v-DQYGpWEDf2MSEYCDZo-17" value="Password" style="ellipse;whiteSpace=wrap;html=1;align=center;" parent="1" vertex="1">
          <mxGeometry x="467" y="686" width="100" height="40" as="geometry" />
        </mxCell>
        <mxCell id="v-DQYGpWEDf2MSEYCDZo-18" value="Profile pic URL" style="ellipse;whiteSpace=wrap;html=1;align=center;" parent="1" vertex="1">
          <mxGeometry x="438" y="641" width="100" height="40" as="geometry" />
        </mxCell>
        <mxCell id="v-DQYGpWEDf2MSEYCDZo-19" value="Added on" style="ellipse;whiteSpace=wrap;html=1;align=center;" parent="1" vertex="1">
          <mxGeometry x="619" y="681" width="100" height="40" as="geometry" />
        </mxCell>
        <mxCell id="v-DQYGpWEDf2MSEYCDZo-20" value="ID" style="ellipse;whiteSpace=wrap;html=1;align=center;fontStyle=4;" parent="1" vertex="1">
          <mxGeometry x="918" y="540" width="100" height="40" as="geometry" />
        </mxCell>
        <mxCell id="v-DQYGpWEDf2MSEYCDZo-21" value="Name" style="ellipse;whiteSpace=wrap;html=1;align=center;" parent="1" vertex="1">
          <mxGeometry x="970" y="582" width="100" height="40" as="geometry" />
        </mxCell>
        <mxCell id="v-DQYGpWEDf2MSEYCDZo-22" value="Profile pic URL" style="ellipse;whiteSpace=wrap;html=1;align=center;" parent="1" vertex="1">
          <mxGeometry x="975" y="629" width="100" height="40" as="geometry" />
        </mxCell>
        <mxCell id="v-DQYGpWEDf2MSEYCDZo-23" value="Phone number" style="ellipse;whiteSpace=wrap;html=1;align=center;" parent="1" vertex="1">
          <mxGeometry x="911" y="664" width="100" height="40" as="geometry" />
        </mxCell>
        <mxCell id="v-DQYGpWEDf2MSEYCDZo-24" value="Password" style="ellipse;whiteSpace=wrap;html=1;align=center;" parent="1" vertex="1">
          <mxGeometry x="859" y="704" width="100" height="40" as="geometry" />
        </mxCell>
        <mxCell id="v-DQYGpWEDf2MSEYCDZo-25" value="Added on" style="ellipse;whiteSpace=wrap;html=1;align=center;" parent="1" vertex="1">
          <mxGeometry x="770" y="674" width="100" height="40" as="geometry" />
        </mxCell>
        <mxCell id="v-DQYGpWEDf2MSEYCDZo-28" value="" style="endArrow=none;html=1;rounded=0;" parent="1" source="v-DQYGpWEDf2MSEYCDZo-4" target="v-DQYGpWEDf2MSEYCDZo-25" edge="1">
          <mxGeometry relative="1" as="geometry">
            <mxPoint x="645" y="641" as="sourcePoint" />
            <mxPoint x="805" y="641" as="targetPoint" />
          </mxGeometry>
        </mxCell>
        <mxCell id="v-DQYGpWEDf2MSEYCDZo-29" value="" style="endArrow=none;html=1;rounded=0;" parent="1" source="v-DQYGpWEDf2MSEYCDZo-4" target="v-DQYGpWEDf2MSEYCDZo-24" edge="1">
          <mxGeometry relative="1" as="geometry">
            <mxPoint x="645" y="641" as="sourcePoint" />
            <mxPoint x="805" y="641" as="targetPoint" />
          </mxGeometry>
        </mxCell>
        <mxCell id="v-DQYGpWEDf2MSEYCDZo-30" value="" style="endArrow=none;html=1;rounded=0;" parent="1" source="v-DQYGpWEDf2MSEYCDZo-20" target="v-DQYGpWEDf2MSEYCDZo-4" edge="1">
          <mxGeometry relative="1" as="geometry">
            <mxPoint x="645" y="641" as="sourcePoint" />
            <mxPoint x="805" y="641" as="targetPoint" />
          </mxGeometry>
        </mxCell>
        <mxCell id="v-DQYGpWEDf2MSEYCDZo-31" value="" style="endArrow=none;html=1;rounded=0;" parent="1" source="v-DQYGpWEDf2MSEYCDZo-4" target="v-DQYGpWEDf2MSEYCDZo-21" edge="1">
          <mxGeometry relative="1" as="geometry">
            <mxPoint x="645" y="641" as="sourcePoint" />
            <mxPoint x="805" y="641" as="targetPoint" />
          </mxGeometry>
        </mxCell>
        <mxCell id="v-DQYGpWEDf2MSEYCDZo-32" value="" style="endArrow=none;html=1;rounded=0;" parent="1" source="v-DQYGpWEDf2MSEYCDZo-4" target="v-DQYGpWEDf2MSEYCDZo-22" edge="1">
          <mxGeometry relative="1" as="geometry">
            <mxPoint x="645" y="641" as="sourcePoint" />
            <mxPoint x="805" y="641" as="targetPoint" />
          </mxGeometry>
        </mxCell>
        <mxCell id="v-DQYGpWEDf2MSEYCDZo-33" value="" style="endArrow=none;html=1;rounded=0;" parent="1" source="v-DQYGpWEDf2MSEYCDZo-4" target="v-DQYGpWEDf2MSEYCDZo-23" edge="1">
          <mxGeometry relative="1" as="geometry">
            <mxPoint x="645" y="641" as="sourcePoint" />
            <mxPoint x="805" y="641" as="targetPoint" />
          </mxGeometry>
        </mxCell>
        <mxCell id="v-DQYGpWEDf2MSEYCDZo-34" value="" style="endArrow=none;html=1;rounded=0;" parent="1" source="v-DQYGpWEDf2MSEYCDZo-19" target="v-DQYGpWEDf2MSEYCDZo-3" edge="1">
          <mxGeometry relative="1" as="geometry">
            <mxPoint x="645" y="641" as="sourcePoint" />
            <mxPoint x="805" y="641" as="targetPoint" />
          </mxGeometry>
        </mxCell>
        <mxCell id="v-DQYGpWEDf2MSEYCDZo-35" value="" style="endArrow=none;html=1;rounded=0;" parent="1" source="v-DQYGpWEDf2MSEYCDZo-15" target="v-DQYGpWEDf2MSEYCDZo-3" edge="1">
          <mxGeometry relative="1" as="geometry">
            <mxPoint x="645" y="641" as="sourcePoint" />
            <mxPoint x="805" y="641" as="targetPoint" />
          </mxGeometry>
        </mxCell>
        <mxCell id="v-DQYGpWEDf2MSEYCDZo-36" value="" style="endArrow=none;html=1;rounded=0;" parent="1" source="v-DQYGpWEDf2MSEYCDZo-17" target="v-DQYGpWEDf2MSEYCDZo-3" edge="1">
          <mxGeometry relative="1" as="geometry">
            <mxPoint x="645" y="641" as="sourcePoint" />
            <mxPoint x="805" y="641" as="targetPoint" />
          </mxGeometry>
        </mxCell>
        <mxCell id="v-DQYGpWEDf2MSEYCDZo-37" value="" style="endArrow=none;html=1;rounded=0;" parent="1" source="v-DQYGpWEDf2MSEYCDZo-18" target="v-DQYGpWEDf2MSEYCDZo-3" edge="1">
          <mxGeometry relative="1" as="geometry">
            <mxPoint x="645" y="641" as="sourcePoint" />
            <mxPoint x="805" y="641" as="targetPoint" />
          </mxGeometry>
        </mxCell>
        <mxCell id="v-DQYGpWEDf2MSEYCDZo-38" value="" style="endArrow=none;html=1;rounded=0;" parent="1" source="v-DQYGpWEDf2MSEYCDZo-13" target="v-DQYGpWEDf2MSEYCDZo-3" edge="1">
          <mxGeometry relative="1" as="geometry">
            <mxPoint x="645" y="641" as="sourcePoint" />
            <mxPoint x="805" y="641" as="targetPoint" />
          </mxGeometry>
        </mxCell>
        <mxCell id="v-DQYGpWEDf2MSEYCDZo-39" value="" style="endArrow=none;html=1;rounded=0;" parent="1" source="v-DQYGpWEDf2MSEYCDZo-14" target="v-DQYGpWEDf2MSEYCDZo-3" edge="1">
          <mxGeometry relative="1" as="geometry">
            <mxPoint x="645" y="641" as="sourcePoint" />
            <mxPoint x="805" y="641" as="targetPoint" />
          </mxGeometry>
        </mxCell>
        <mxCell id="v-DQYGpWEDf2MSEYCDZo-40" value="Messages" style="whiteSpace=wrap;html=1;align=center;" parent="1" vertex="1">
          <mxGeometry x="42" y="410" width="100" height="40" as="geometry" />
        </mxCell>
        <mxCell id="v-DQYGpWEDf2MSEYCDZo-41" value="has" style="shape=rhombus;perimeter=rhombusPerimeter;whiteSpace=wrap;html=1;align=center;" parent="1" vertex="1">
          <mxGeometry x="196" y="400" width="120" height="60" as="geometry" />
        </mxCell>
        <mxCell id="v-DQYGpWEDf2MSEYCDZo-42" value="" style="endArrow=none;html=1;rounded=0;" parent="1" source="v-DQYGpWEDf2MSEYCDZo-41" target="v-DQYGpWEDf2MSEYCDZo-1" edge="1">
          <mxGeometry relative="1" as="geometry">
            <mxPoint x="93" y="641" as="sourcePoint" />
            <mxPoint x="253" y="641" as="targetPoint" />
          </mxGeometry>
        </mxCell>
        <mxCell id="v-DQYGpWEDf2MSEYCDZo-43" value="" style="endArrow=none;html=1;rounded=0;" parent="1" source="v-DQYGpWEDf2MSEYCDZo-40" target="v-DQYGpWEDf2MSEYCDZo-41" edge="1">
          <mxGeometry relative="1" as="geometry">
            <mxPoint x="93" y="641" as="sourcePoint" />
            <mxPoint x="253" y="641" as="targetPoint" />
          </mxGeometry>
        </mxCell>
        <mxCell id="v-DQYGpWEDf2MSEYCDZo-44" value="Added on" style="ellipse;whiteSpace=wrap;html=1;align=center;" parent="1" vertex="1">
          <mxGeometry x="314" y="333" width="100" height="40" as="geometry" />
        </mxCell>
        <mxCell id="v-DQYGpWEDf2MSEYCDZo-45" value="ID" style="ellipse;whiteSpace=wrap;html=1;align=center;fontStyle=4;" parent="1" vertex="1">
          <mxGeometry x="453" y="333" width="100" height="40" as="geometry" />
        </mxCell>
        <mxCell id="v-DQYGpWEDf2MSEYCDZo-46" value="" style="endArrow=none;html=1;rounded=0;" parent="1" source="v-DQYGpWEDf2MSEYCDZo-1" target="v-DQYGpWEDf2MSEYCDZo-45" edge="1">
          <mxGeometry relative="1" as="geometry">
            <mxPoint x="328" y="393" as="sourcePoint" />
            <mxPoint x="488" y="393" as="targetPoint" />
          </mxGeometry>
        </mxCell>
        <mxCell id="v-DQYGpWEDf2MSEYCDZo-47" value="" style="endArrow=none;html=1;rounded=0;" parent="1" source="v-DQYGpWEDf2MSEYCDZo-44" target="v-DQYGpWEDf2MSEYCDZo-1" edge="1">
          <mxGeometry relative="1" as="geometry">
            <mxPoint x="328" y="393" as="sourcePoint" />
            <mxPoint x="488" y="393" as="targetPoint" />
          </mxGeometry>
        </mxCell>
        <mxCell id="v-DQYGpWEDf2MSEYCDZo-48" value="Message 1" style="whiteSpace=wrap;html=1;align=center;" parent="1" vertex="1">
          <mxGeometry x="-43" y="571" width="100" height="40" as="geometry" />
        </mxCell>
        <mxCell id="v-DQYGpWEDf2MSEYCDZo-49" value="Message n" style="whiteSpace=wrap;html=1;align=center;" parent="1" vertex="1">
          <mxGeometry x="122" y="571" width="100" height="40" as="geometry" />
        </mxCell>
        <mxCell id="v-DQYGpWEDf2MSEYCDZo-53" value="Message text" style="ellipse;whiteSpace=wrap;html=1;align=center;" parent="1" vertex="1">
          <mxGeometry x="-177" y="617" width="100" height="40" as="geometry" />
        </mxCell>
        <mxCell id="v-DQYGpWEDf2MSEYCDZo-54" value="ID" style="ellipse;whiteSpace=wrap;html=1;align=center;fontStyle=4;" parent="1" vertex="1">
          <mxGeometry x="-184" y="550" width="100" height="40" as="geometry" />
        </mxCell>
        <mxCell id="v-DQYGpWEDf2MSEYCDZo-55" value="Added on" style="ellipse;whiteSpace=wrap;html=1;align=center;" parent="1" vertex="1">
          <mxGeometry x="-140" y="674" width="100" height="40" as="geometry" />
        </mxCell>
        <mxCell id="v-DQYGpWEDf2MSEYCDZo-56" value="Sender ID" style="ellipse;whiteSpace=wrap;html=1;align=center;" parent="1" vertex="1">
          <mxGeometry x="-63" y="707" width="100" height="40" as="geometry" />
        </mxCell>
        <mxCell id="v-DQYGpWEDf2MSEYCDZo-57" value="" style="endArrow=none;html=1;rounded=0;" parent="1" source="v-DQYGpWEDf2MSEYCDZo-56" target="v-DQYGpWEDf2MSEYCDZo-48" edge="1">
          <mxGeometry relative="1" as="geometry">
            <mxPoint x="25" y="505" as="sourcePoint" />
            <mxPoint x="185" y="505" as="targetPoint" />
          </mxGeometry>
        </mxCell>
        <mxCell id="v-DQYGpWEDf2MSEYCDZo-58" value="" style="endArrow=none;html=1;rounded=0;" parent="1" source="v-DQYGpWEDf2MSEYCDZo-48" target="v-DQYGpWEDf2MSEYCDZo-55" edge="1">
          <mxGeometry relative="1" as="geometry">
            <mxPoint x="25" y="505" as="sourcePoint" />
            <mxPoint x="185" y="505" as="targetPoint" />
          </mxGeometry>
        </mxCell>
        <mxCell id="v-DQYGpWEDf2MSEYCDZo-59" value="" style="endArrow=none;html=1;rounded=0;" parent="1" source="v-DQYGpWEDf2MSEYCDZo-48" target="v-DQYGpWEDf2MSEYCDZo-53" edge="1">
          <mxGeometry relative="1" as="geometry">
            <mxPoint x="25" y="505" as="sourcePoint" />
            <mxPoint x="185" y="505" as="targetPoint" />
          </mxGeometry>
        </mxCell>
        <mxCell id="v-DQYGpWEDf2MSEYCDZo-60" value="" style="endArrow=none;html=1;rounded=0;" parent="1" source="v-DQYGpWEDf2MSEYCDZo-54" target="v-DQYGpWEDf2MSEYCDZo-48" edge="1">
          <mxGeometry relative="1" as="geometry">
            <mxPoint x="25" y="505" as="sourcePoint" />
            <mxPoint x="185" y="505" as="targetPoint" />
          </mxGeometry>
        </mxCell>
        <mxCell id="v-DQYGpWEDf2MSEYCDZo-61" value="Channel ID" style="ellipse;whiteSpace=wrap;html=1;align=center;" parent="1" vertex="1">
          <mxGeometry x="37" y="669" width="100" height="40" as="geometry" />
        </mxCell>
        <mxCell id="v-DQYGpWEDf2MSEYCDZo-62" value="" style="endArrow=none;html=1;rounded=0;" parent="1" source="v-DQYGpWEDf2MSEYCDZo-61" target="v-DQYGpWEDf2MSEYCDZo-48" edge="1">
          <mxGeometry relative="1" as="geometry">
            <mxPoint x="25" y="505" as="sourcePoint" />
            <mxPoint x="185" y="505" as="targetPoint" />
          </mxGeometry>
        </mxCell>
        <mxCell id="TyiQXdj4yDbZuUEe9Dlb-1" value="" style="rounded=0;whiteSpace=wrap;html=1;glass=0;dashed=1;fillStyle=auto;fillColor=#FFFFFF;fillOpacity=0;" vertex="1" parent="1">
          <mxGeometry x="-227" y="518" width="509" height="247" as="geometry" />
        </mxCell>
        <mxCell id="TyiQXdj4yDbZuUEe9Dlb-2" value="&lt;font style=&quot;font-size: 20px;&quot;&gt;&lt;b&gt;. . .&lt;/b&gt;&lt;/font&gt;" style="text;html=1;align=center;verticalAlign=middle;resizable=0;points=[];autosize=1;strokeColor=none;fillColor=none;" vertex="1" parent="1">
          <mxGeometry x="67" y="567" width="46" height="36" as="geometry" />
        </mxCell>
        <mxCell id="TyiQXdj4yDbZuUEe9Dlb-3" value="" style="rounded=0;whiteSpace=wrap;html=1;fillOpacity=0;dashed=1;" vertex="1" parent="1">
          <mxGeometry x="424" y="493" width="664" height="285" as="geometry" />
        </mxCell>
        <mxCell id="TyiQXdj4yDbZuUEe9Dlb-4" value="" style="endArrow=classic;html=1;rounded=0;edgeStyle=orthogonalEdgeStyle;" edge="1" parent="1" source="v-DQYGpWEDf2MSEYCDZo-2" target="v-DQYGpWEDf2MSEYCDZo-3">
          <mxGeometry width="50" height="50" relative="1" as="geometry">
            <mxPoint x="632" y="682" as="sourcePoint" />
            <mxPoint x="669" y="871" as="targetPoint" />
            <Array as="points">
              <mxPoint x="748" y="514" />
              <mxPoint x="626" y="514" />
            </Array>
          </mxGeometry>
        </mxCell>
        <mxCell id="TyiQXdj4yDbZuUEe9Dlb-5" value="" style="endArrow=classic;html=1;rounded=0;edgeStyle=orthogonalEdgeStyle;" edge="1" parent="1" source="v-DQYGpWEDf2MSEYCDZo-2" target="v-DQYGpWEDf2MSEYCDZo-4">
          <mxGeometry width="50" height="50" relative="1" as="geometry">
            <mxPoint x="632" y="682" as="sourcePoint" />
            <mxPoint x="682" y="632" as="targetPoint" />
            <Array as="points">
              <mxPoint x="748" y="514" />
              <mxPoint x="841" y="514" />
            </Array>
          </mxGeometry>
        </mxCell>
        <mxCell id="TyiQXdj4yDbZuUEe9Dlb-6" value="" style="endArrow=classic;html=1;rounded=0;edgeStyle=orthogonalEdgeStyle;" edge="1" parent="1" source="v-DQYGpWEDf2MSEYCDZo-40" target="v-DQYGpWEDf2MSEYCDZo-49">
          <mxGeometry width="50" height="50" relative="1" as="geometry">
            <mxPoint x="136" y="682" as="sourcePoint" />
            <mxPoint x="186" y="632" as="targetPoint" />
            <Array as="points">
              <mxPoint x="92" y="534" />
              <mxPoint x="172" y="534" />
            </Array>
          </mxGeometry>
        </mxCell>
        <mxCell id="TyiQXdj4yDbZuUEe9Dlb-7" value="" style="endArrow=classic;html=1;rounded=0;edgeStyle=orthogonalEdgeStyle;" edge="1" parent="1" source="v-DQYGpWEDf2MSEYCDZo-40" target="v-DQYGpWEDf2MSEYCDZo-48">
          <mxGeometry width="50" height="50" relative="1" as="geometry">
            <mxPoint x="136" y="682" as="sourcePoint" />
            <mxPoint x="186" y="632" as="targetPoint" />
            <Array as="points">
              <mxPoint x="92" y="534" />
              <mxPoint x="7" y="534" />
            </Array>
          </mxGeometry>
        </mxCell>
      </root>
    </mxGraphModel>
  </diagram>
</mxfile>
